<?xml version="1.0" encoding="UTF-8" standalone="no"?>
<!-- Generator: Adobe Illustrator 23.0.1, SVG Export Plug-In . SVG Version: 6.00 Build 0)  -->

<svg
   xmlns:dc="http://purl.org/dc/elements/1.1/"
   xmlns:cc="http://creativecommons.org/ns#"
   xmlns:rdf="http://www.w3.org/1999/02/22-rdf-syntax-ns#"
   xmlns:svg="http://www.w3.org/2000/svg"
   xmlns="http://www.w3.org/2000/svg"
   xmlns:sodipodi="http://sodipodi.sourceforge.net/DTD/sodipodi-0.dtd"
   xmlns:inkscape="http://www.inkscape.org/namespaces/inkscape"
   version="1.2"
   id="Layer_1"
   x="0px"
   y="0px"
   viewBox="0 0 240.71 96.29"
   xml:space="preserve"
   sodipodi:docname="icn-getID.svg"
   inkscape:version="0.92.4 (5da689c313, 2019-01-14)"><metadata
   id="metadata4136"><rdf:RDF><cc:Work
       rdf:about=""><dc:format>image/svg+xml</dc:format><dc:type
         rdf:resource="http://purl.org/dc/dcmitype/StillImage" /></cc:Work></rdf:RDF></metadata><defs
   id="defs4134" /><sodipodi:namedview
   pagecolor="#ffffff"
   bordercolor="#666666"
   borderopacity="1"
   objecttolerance="10"
   gridtolerance="10"
   guidetolerance="10"
   inkscape:pageopacity="0"
   inkscape:pageshadow="2"
   inkscape:window-width="1093"
   inkscape:window-height="680"
   id="namedview4132"
   showgrid="false"
   inkscape:zoom="1.1798429"
   inkscape:cx="146.62969"
   inkscape:cy="48.145"
   inkscape:window-x="0"
   inkscape:window-y="0"
   inkscape:window-maximized="0"
   inkscape:current-layer="Layer_1" />
<g
   id="g4125">
	<g
   id="g4123">
		<path
   fill="#00AEEF"
   d="M226.73,24.67c4.52,0,8.22,3.7,8.22,8.22V63.4c0,4.52-3.7,8.22-8.22,8.22H56.34    c-4.52,0-8.22-3.7-8.22-8.22V32.89c0-4.52,3.7-8.22,8.22-8.22H226.73 M226.73,18.91H56.34c-7.71,0-13.98,6.27-13.98,13.98V63.4    c0,7.71,6.27,13.98,13.98,13.98h170.39c7.71,0,13.98-6.27,13.98-13.98V32.89C240.71,25.18,234.44,18.91,226.73,18.91L226.73,18.91    z"
   id="path4117" />
		<path
   fill="#00AEEF"
   d="M86.29,96.29H10c-5.5,0-10-4.5-10-10V10C0,4.5,4.5,0,10,0h76.29c5.5,0,10,4.5,10,10v76.29    C96.29,91.79,91.79,96.29,86.29,96.29z"
   id="path4119" />
		<path
   id="Path_158_1_"
   fill="#FFFFFF"
   d="M79.32,79.74V35.35c0-0.7-0.28-1.37-0.79-1.84L58.31,14.72    c-0.47-0.43-1.08-0.66-1.72-0.67H25.34c-1.38,0-2.51,1.13-2.51,2.51v28.03c0,1.39,1.12,2.51,2.51,2.51s2.51-1.12,2.51-2.51V19.07    h25.52v19.25c0,1.38,1.13,2.51,2.51,2.51h17.99c0.14,0.01,0.28-0.01,0.42-0.04v36.44H27.85V67.18c0-1.39-1.12-2.51-2.51-2.51    c-1.39,0-2.51,1.12-2.51,2.51v12.55c0,1.38,1.13,2.51,2.51,2.51h51.46C78.19,82.24,79.31,81.12,79.32,79.74z M58.4,21.66    L73.59,35.8H58.4V21.66z" />
		<path
   id="Path_159_1_"
   fill="#FFFFFF"
   d="M16.98,55.47c0,1.38,1.13,2.51,2.51,2.51h22.15l-8.08,7.2c-1.04,0.92-1.14,2.5-0.22,3.54    c0.48,0.54,1.17,0.85,1.89,0.85c0.61-0.01,1.21-0.23,1.67-0.63l13.05-11.63c0.54-0.48,0.84-1.16,0.84-1.88    c0-0.72-0.3-1.4-0.84-1.88L36.91,41.91c-1.04-0.92-2.63-0.83-3.56,0.21s-0.83,2.63,0.21,3.56l8.2,7.28H19.49    C18.1,52.96,16.98,54.08,16.98,55.47z" />
	</g>
</g>
<g
   id="g4129">
	<path
   fill="#FFFFFF"
   d="M54.15,59.48h2.76l0.51-3.87H55.1v-3.55h2.73l0.7-5.52h3.04l-0.67,5.52h3.08l0.7-5.52h3.08l-0.7,5.52h2.32   v3.55h-2.73l-0.51,3.87h2.31v3.55h-2.73l-0.7,5.52h-3.08l0.7-5.52h-3.11l-0.67,5.52H55.8l0.7-5.52h-2.35V59.48z M59.99,59.48h3.08   l0.51-3.87h-3.11L59.99,59.48z"
   id="path4127" />
</g>
<path
   style="fill:none;stroke:#000000;stroke-width:1px;stroke-linecap:butt;stroke-linejoin:miter;stroke-opacity:1"
   d="m 228.40113,48.759049 c 6.11853,0 6.11853,0 6.11853,0"
   id="toMS"
   inkscape:connector-curvature="0" /></svg>