<?xml version="1.0" encoding="utf-8"?>
<!-- Generator: Adobe Illustrator 23.0.1, SVG Export Plug-In . SVG Version: 6.00 Build 0)  -->
<svg version="1.2" baseProfile="tiny" id="Layer_1" xmlns="http://www.w3.org/2000/svg" xmlns:xlink="http://www.w3.org/1999/xlink"
	 x="0px" y="0px" viewBox="0 0 250 96.29" xml:space="preserve">
<g>
	<path fill="#000001" d="M53.33,96.29H10c-5.5,0-10-4.5-10-10V10C0,4.5,4.5,0,10,0h43.33c5.5,0,10,4.5,10,10v76.29
		C63.33,91.79,58.83,96.29,53.33,96.29z"/>
	<g id="g4_2_" transform="matrix(0.06703178,0,0,0.06703204,5.6095866,1.015081)">
		<path id="path6_2_" fill="#FFFFFF" d="M550.12,756.79c-37.18,0-70.51,16.47-93.34,42.41l-58.49-41.41
			c6.21-17.09,9.77-35.45,9.77-54.66c0-18.88-3.44-36.93-9.45-53.77l58.36-40.97c22.82,25.8,56.07,42.19,93.14,42.19
			c68.62,0,124.46-55.83,124.46-124.46s-55.84-124.46-124.46-124.46S425.66,457.47,425.66,526.1c0,12.28,1.86,24.13,5.19,35.35
			l-58.4,40.99c-24.39-30.26-59.52-51.39-99.54-57.84v-70.38c56.38-11.84,98.86-61.93,98.86-121.79
			c0-68.63-55.84-124.46-124.46-124.46s-124.46,55.83-124.46,124.46c0,59.05,41.38,108.53,96.63,121.21v71.3
			c-75.4,13.24-132.93,79.04-132.93,158.18c0,79.53,58.1,145.57,134.04,158.36v75.28c-55.82,12.27-97.74,62.05-97.74,121.5
			c0,68.63,55.84,124.46,124.46,124.46s124.46-55.83,124.46-124.46c0-59.46-41.93-109.23-97.74-121.5v-75.29
			c39.23-6.61,73.71-27.32,97.85-56.91l58.88,41.68c-3.27,11.12-5.1,22.85-5.1,35.01c0,68.63,55.84,124.46,124.46,124.46
			s124.46-55.83,124.46-124.46S618.74,756.79,550.12,756.79C550.12,756.79,550.12,756.79,550.12,756.79z M550.12,465.76
			c33.28,0,60.34,27.08,60.34,60.35c0,33.27-27.07,60.34-60.34,60.34s-60.34-27.08-60.34-60.34
			C489.78,492.84,516.84,465.76,550.12,465.76C550.12,465.76,550.12,465.76,550.12,465.76z M186.95,352.43
			c0-33.27,27.07-60.34,60.35-60.34s60.34,27.08,60.34,60.34s-27.07,60.34-60.34,60.34S186.95,385.7,186.95,352.43
			C186.95,352.43,186.95,352.43,186.95,352.43z M307.64,1058.27c0,33.27-27.07,60.34-60.34,60.34s-60.35-27.08-60.35-60.34
			s27.07-60.34,60.35-60.34S307.64,1025,307.64,1058.27L307.64,1058.27z M247.3,787.28c-46.41,0-84.17-37.75-84.17-84.16
			c0-46.41,37.76-84.17,84.17-84.17c46.41,0,84.17,37.76,84.17,84.17C331.46,749.53,293.71,787.28,247.3,787.28L247.3,787.28z
			 M550.12,941.6c-33.28,0-60.34-27.08-60.34-60.35c0-33.27,27.07-60.34,60.34-60.34c33.28,0,60.34,27.08,60.34,60.34
			C610.46,914.52,583.4,941.6,550.12,941.6C550.12,941.6,550.12,941.6,550.12,941.6z"/>
	</g>
	<path d="M75.5,96.29L75.5,96.29c-3.89,0-7.08-3.18-7.08-7.08V7.08C68.43,3.18,71.61,0,75.5,0h0c3.89,0,7.08,3.18,7.08,7.08v82.14
		C82.58,93.11,79.39,96.29,75.5,96.29z"/>
	<path d="M95.21,96.29L95.21,96.29c-3.89,0-7.08-3.18-7.08-7.08V7.08c0-3.89,3.18-7.08,7.08-7.08h0c3.89,0,7.08,3.18,7.08,7.08
		v82.14C102.28,93.11,99.1,96.29,95.21,96.29z"/>
	<path d="M115.65,96.29L115.65,96.29c-3.89,0-7.08-3.18-7.08-7.08V7.08c0-3.89,3.18-7.08,7.08-7.08h0c3.89,0,7.08,3.18,7.08,7.08
		v82.14C122.72,93.11,119.54,96.29,115.65,96.29z"/>
	<g>
		<path d="M236.02,24.67c4.52,0,8.22,3.7,8.22,8.22V63.4c0,4.52-3.7,8.22-8.22,8.22H123.25c-4.52,0-8.22-3.7-8.22-8.22V32.89
			c0-4.52,3.7-8.22,8.22-8.22H236.02 M236.02,18.91H123.25c-7.71,0-13.98,6.27-13.98,13.98V63.4c0,7.71,6.27,13.98,13.98,13.98
			h112.77c7.71,0,13.98-6.27,13.98-13.98V32.89C250,25.18,243.73,18.91,236.02,18.91L236.02,18.91z"/>
	</g>
</g>
</svg>
