<?xml version="1.0" encoding="UTF-8" standalone="no"?>
<!-- Generator: Adobe Illustrator 23.0.1, SVG Export Plug-In . SVG Version: 6.00 Build 0)  -->

<svg
   xmlns:dc="http://purl.org/dc/elements/1.1/"
   xmlns:cc="http://creativecommons.org/ns#"
   xmlns:rdf="http://www.w3.org/1999/02/22-rdf-syntax-ns#"
   xmlns:svg="http://www.w3.org/2000/svg"
   xmlns="http://www.w3.org/2000/svg"
   xmlns:sodipodi="http://sodipodi.sourceforge.net/DTD/sodipodi-0.dtd"
   xmlns:inkscape="http://www.inkscape.org/namespaces/inkscape"
   version="1.2"
   id="Layer_1"
   x="0px"
   y="0px"
   viewBox="0 0 240.71 96.29"
   xml:space="preserve"
   sodipodi:docname="icn-delete.svg"
   inkscape:version="0.92.4 (5da689c313, 2019-01-14)"><metadata
   id="metadata4026"><rdf:RDF><cc:Work
       rdf:about=""><dc:format>image/svg+xml</dc:format><dc:type
         rdf:resource="http://purl.org/dc/dcmitype/StillImage" /></cc:Work></rdf:RDF></metadata><defs
   id="defs4024" /><sodipodi:namedview
   pagecolor="#ffffff"
   bordercolor="#666666"
   borderopacity="1"
   objecttolerance="10"
   gridtolerance="10"
   guidetolerance="10"
   inkscape:pageopacity="0"
   inkscape:pageshadow="2"
   inkscape:window-width="972"
   inkscape:window-height="601"
   id="namedview4022"
   showgrid="false"
   inkscape:zoom="1.1798429"
   inkscape:cx="146.62969"
   inkscape:cy="49.036074"
   inkscape:window-x="0"
   inkscape:window-y="0"
   inkscape:window-maximized="0"
   inkscape:current-layer="Layer_1" />
<g
   id="g4019">
	<g
   id="g4017">
		<path
   fill="#FF00A8"
   d="M226.73,24.66c4.52,0,8.22,3.7,8.22,8.22v30.51c0,4.52-3.7,8.22-8.22,8.22H56.34    c-4.52,0-8.22-3.7-8.22-8.22V32.88c0-4.52,3.7-8.22,8.22-8.22H226.73 M226.73,18.9H56.34c-7.71,0-13.98,6.27-13.98,13.98v30.51    c0,7.71,6.27,13.98,13.98,13.98h170.39c7.71,0,13.98-6.27,13.98-13.98V32.88C240.71,25.17,234.44,18.9,226.73,18.9L226.73,18.9z"
   id="path4010" />
		<path
   fill="#FF00A8"
   d="M86.29,96.29H10c-5.5,0-10-4.5-10-10V10C0,4.5,4.5,0,10,0h76.29c5.5,0,10,4.5,10,10v76.29    C96.29,91.79,91.79,96.29,86.29,96.29z"
   id="path4012" />
		<g
   id="Group_108">
			<path
   id="Path_191"
   fill="#FFFFFF"
   d="M32.15,64.15c0.43,0.44,1.02,0.7,1.64,0.7c0.62,0,1.21-0.25,1.64-0.7l12.72-12.72     l12.72,12.72c0.43,0.44,1.02,0.7,1.64,0.7c0.62,0,1.21-0.25,1.64-0.7c0.9-0.92,0.9-2.39,0-3.32L51.46,48.15l12.68-12.72     c0.9-0.92,0.9-2.39,0-3.32c-0.91-0.92-2.4-0.92-3.31,0c0,0,0,0,0,0L48.15,44.83L35.43,32.15c-0.92-0.92-2.4-0.92-3.32,0     c-0.92,0.92-0.92,2.4,0,3.32l12.72,12.68L32.15,60.87c-0.91,0.86-0.94,2.29-0.08,3.2C32.09,64.1,32.12,64.12,32.15,64.15z" />
			<path
   id="Path_192"
   fill="#FFFFFF"
   d="M48.15,82.52c18.99,0,34.38-15.39,34.38-34.38S67.13,13.77,48.15,13.77     S13.77,29.16,13.77,48.15c0,0,0,0,0,0C13.79,67.13,29.17,82.51,48.15,82.52z M48.15,18.45c16.4,0,29.69,13.3,29.69,29.69     s-13.3,29.69-29.69,29.69c-16.4,0-29.69-13.29-29.69-29.69C18.46,31.75,31.75,18.46,48.15,18.45L48.15,18.45z" />
		</g>
	</g>
</g>
<path
   style="fill:none;stroke:#000000;stroke-width:1px;stroke-linecap:butt;stroke-linejoin:miter;stroke-opacity:1"
   d="m 228.14997,48.94321 c 6.11852,0 6.11852,0 6.11852,0"
   id="toMS"
   inkscape:connector-curvature="0" /></svg>