<?xml version="1.0" encoding="UTF-8" standalone="no"?>
<!-- Generator: Adobe Illustrator 23.0.1, SVG Export Plug-In . SVG Version: 6.00 Build 0)  -->

<svg
   xmlns:dc="http://purl.org/dc/elements/1.1/"
   xmlns:cc="http://creativecommons.org/ns#"
   xmlns:rdf="http://www.w3.org/1999/02/22-rdf-syntax-ns#"
   xmlns:svg="http://www.w3.org/2000/svg"
   xmlns="http://www.w3.org/2000/svg"
   xmlns:sodipodi="http://sodipodi.sourceforge.net/DTD/sodipodi-0.dtd"
   xmlns:inkscape="http://www.inkscape.org/namespaces/inkscape"
   version="1.2"
   id="Layer_1"
   x="0px"
   y="0px"
   viewBox="0 0 500 500"
   xml:space="preserve"
   sodipodi:docname="icn-db-shared.svg"
   inkscape:version="0.92.4 (5da689c313, 2019-01-14)"><metadata
   id="metadata3984"><rdf:RDF><cc:Work
       rdf:about=""><dc:format>image/svg+xml</dc:format><dc:type
         rdf:resource="http://purl.org/dc/dcmitype/StillImage" /></cc:Work></rdf:RDF></metadata><defs
   id="defs3982" /><sodipodi:namedview
   pagecolor="#ffffff"
   bordercolor="#666666"
   borderopacity="1"
   objecttolerance="10"
   gridtolerance="10"
   guidetolerance="10"
   inkscape:pageopacity="0"
   inkscape:pageshadow="2"
   inkscape:window-width="1169"
   inkscape:window-height="917"
   id="namedview3980"
   showgrid="false"
   inkscape:zoom="3"
   inkscape:cx="260.33333"
   inkscape:cy="250"
   inkscape:window-x="0"
   inkscape:window-y="0"
   inkscape:window-maximized="0"
   inkscape:current-layer="Layer_1" />
<g
   id="g3977">
	<path
   d="M327.75,226.39c4.52,0,8.22,3.7,8.22,8.22v30.51c0,4.52-3.7,8.22-8.22,8.22H226.26   c-4.52,0-8.22-3.7-8.22-8.22v-30.51c0-4.52,3.7-8.22,8.22-8.22H327.75 M327.75,220.63H226.26c-7.71,0-13.98,6.27-13.98,13.98v30.51   c0,7.71,6.27,13.98,13.98,13.98h101.49c7.71,0,13.98-6.27,13.98-13.98v-30.51C341.73,226.9,335.46,220.63,327.75,220.63   L327.75,220.63z"
   id="path3942"
   fill="#6CA4A3" />
	<path
   d="M228.87,241.88H181.8c-3.41,0-6.2-2.79-6.2-6.2v-5.29c0-3.41,2.79-6.2,6.2-6.2h47.07   c3.41,0,6.2,2.79,6.2,6.2v5.29C235.06,239.1,232.27,241.88,228.87,241.88z"
   id="path3944"
   fill="#FFFFFF" />
	<path
   d="M228.87,276.42H181.8c-3.41,0-6.2-2.79-6.2-6.2v-5.29c0-3.41,2.79-6.2,6.2-6.2h47.07   c3.41,0,6.2,2.79,6.2,6.2v5.29C235.06,273.63,232.27,276.42,228.87,276.42z"
   id="path3946"
   fill="#FFFFFF" />
	<linearGradient
   id="SVGID_1_"
   gradientUnits="userSpaceOnUse"
   x1="157.3457"
   y1="216.2055"
   x2="253.3153"
   y2="216.2055">
		<stop
   offset="1.070205e-03"
   style="stop-color:#6CA4A3"
   id="stop3948" />
		<stop
   offset="0.486"
   style="stop-color:#EBEBEB"
   id="stop3950" />
		<stop
   offset="1"
   style="stop-color:#6CA4A3"
   id="stop3952" />
	</linearGradient>
	<path
   d="M243.32,230.47h-75.97c-5.5,0-10-4.5-10-10v-8.53c0-5.5,4.5-10,10-10h75.97c5.5,0,10,4.5,10,10v8.53   C253.32,225.97,248.82,230.47,243.32,230.47z"
   id="path3955"
   fill="url(#SVGID_1_)" />
	<linearGradient
   id="SVGID_2_"
   gradientUnits="userSpaceOnUse"
   x1="157.3457"
   y1="284.1649"
   x2="253.3153"
   y2="284.1649">
		<stop
   offset="0"
   style="stop-color:#6CA4A3"
   id="stop3957" />
		<stop
   offset="0.486"
   style="stop-color:#EBEBEB"
   id="stop3959" />
		<stop
   offset="1"
   style="stop-color:#6CA4A3"
   id="stop3961" />
	</linearGradient>
	<path
   d="M243.32,298.43h-75.97c-5.5,0-10-4.5-10-10v-8.53c0-5.5,4.5-10,10-10h75.97c5.5,0,10,4.5,10,10v8.53   C253.32,293.93,248.82,298.43,243.32,298.43z"
   id="path3964"
   fill="url(#SVGID_2_)" />
	<linearGradient
   id="SVGID_3_"
   gradientUnits="userSpaceOnUse"
   x1="157.3457"
   y1="250.1852"
   x2="253.3153"
   y2="250.1852">
		<stop
   offset="0"
   style="stop-color:#6CA4A3"
   id="stop3966" />
		<stop
   offset="0.486"
   style="stop-color:#EBEBEB"
   id="stop3968" />
		<stop
   offset="1"
   style="stop-color:#6CA4A3"
   id="stop3970" />
	</linearGradient>
	<path
   d="M243.32,264.45h-75.97c-5.5,0-10-4.5-10-10v-8.53c0-5.5,4.5-10,10-10h75.97c5.5,0,10,4.5,10,10v8.53   C253.32,259.95,248.82,264.45,243.32,264.45z"
   id="path3973"
   fill="url(#SVGID_3_)" />
	<text
   transform="matrix(1 0 0 1 271.3478 258.2519)"
   font-size="20px"
   id="text3975"
   font-family="'HelveticaNeueLTPro-BdCn'"
   fill="#010101">DB</text>

</g>
<path
   style="fill:none;stroke:#000000;stroke-width:1px;stroke-linecap:butt;stroke-linejoin:miter;stroke-opacity:1"
   d="m 157.60741,250 c 6.11852,0 6.11852,0 6.11852,0"
   id="toMS"
   inkscape:connector-curvature="0" /></svg>