<?xml version="1.0" encoding="UTF-8" standalone="no"?>
<!-- Generator: Adobe Illustrator 23.0.1, SVG Export Plug-In . SVG Version: 6.00 Build 0)  -->

<svg
   xmlns:dc="http://purl.org/dc/elements/1.1/"
   xmlns:cc="http://creativecommons.org/ns#"
   xmlns:rdf="http://www.w3.org/1999/02/22-rdf-syntax-ns#"
   xmlns:svg="http://www.w3.org/2000/svg"
   xmlns="http://www.w3.org/2000/svg"
   xmlns:sodipodi="http://sodipodi.sourceforge.net/DTD/sodipodi-0.dtd"
   xmlns:inkscape="http://www.inkscape.org/namespaces/inkscape"
   version="1.2"
   id="Layer_1"
   x="0px"
   y="0px"
   viewBox="0 0 145.35 145.35"
   xml:space="preserve"
   sodipodi:docname="icn-global.svg"
   inkscape:version="0.92.4 (5da689c313, 2019-01-14)"><metadata
   id="metadata4302"><rdf:RDF><cc:Work
       rdf:about=""><dc:format>image/svg+xml</dc:format><dc:type
         rdf:resource="http://purl.org/dc/dcmitype/StillImage" /></cc:Work></rdf:RDF></metadata><defs
   id="defs4300" /><sodipodi:namedview
   pagecolor="#ffffff"
   bordercolor="#666666"
   borderopacity="1"
   objecttolerance="10"
   gridtolerance="10"
   guidetolerance="10"
   inkscape:pageopacity="0"
   inkscape:pageshadow="2"
   inkscape:window-width="1085"
   inkscape:window-height="751"
   id="namedview4298"
   showgrid="false"
   inkscape:zoom="1.6236669"
   inkscape:cx="-0.30794693"
   inkscape:cy="72.675001"
   inkscape:window-x="0"
   inkscape:window-y="0"
   inkscape:window-maximized="0"
   inkscape:current-layer="Layer_1" />
<path
   fill="#C49A6C"
   d="M96.26,7c2.33,0,4.53,0.91,6.18,2.56l33.36,33.36c1.65,1.65,2.56,3.84,2.56,6.18v47.17  c0,2.33-0.91,4.53-2.56,6.18l-33.36,33.36c-1.65,1.65-3.84,2.56-6.18,2.56H49.09c-2.33,0-4.53-0.91-6.18-2.56L9.56,102.44  C7.91,100.79,7,98.6,7,96.26V49.09c0-2.33,0.91-4.53,2.56-6.18L42.91,9.56C44.56,7.91,46.76,7,49.09,7H96.26 M96.26,0H49.09  c-4.17,0-8.17,1.66-11.12,4.61L4.61,37.96C1.66,40.92,0,44.92,0,49.09v47.17c0,4.17,1.66,8.17,4.61,11.12l33.36,33.36  c2.95,2.95,6.95,4.61,11.12,4.61h47.17c4.17,0,8.17-1.66,11.12-4.61l33.36-33.36c2.95-2.95,4.61-6.95,4.61-11.12V49.09  c0-4.17-1.66-8.17-4.61-11.12L107.39,4.61C104.44,1.66,100.44,0,96.26,0L96.26,0z"
   id="path4295" />
<path
   style="fill:none;stroke:#000000;stroke-width:1px;stroke-linecap:butt;stroke-linejoin:miter;stroke-opacity:1"
   d="m 1.13121,72.37691 c 6.11853,0 6.11853,0 6.11853,0"
   id="incoming"
   inkscape:connector-curvature="0" /><path
   style="fill:none;stroke:#000000;stroke-width:1px;stroke-linecap:butt;stroke-linejoin:miter;stroke-opacity:1"
   d="m 118.64138,24.39005 c 6.11852,0 6.11852,0 6.11852,0"
   id="kafkaProduce"
   inkscape:connector-curvature="0" /><path
   style="fill:none;stroke:#000000;stroke-width:1px;stroke-linecap:butt;stroke-linejoin:miter;stroke-opacity:1"
   d="m 117.79965,121.4892 c 6.11852,0 6.11852,0 6.11852,0"
   id="kafkaConsume"
   inkscape:connector-curvature="0" /><path
   style="fill:none;stroke:#000000;stroke-width:1px;stroke-linecap:butt;stroke-linejoin:miter;stroke-opacity:1"
   d="m 139.74054,75.304029 c 6.11852,0 6.11852,0 6.11852,0"
   id="db"
   inkscape:connector-curvature="0" /><path
   style="fill:none;stroke:#000000;stroke-width:1px;stroke-linecap:butt;stroke-linejoin:miter;stroke-opacity:1"
   d="m 70.90007,142.13793 c 6.11852,0 6.11852,0 6.11852,0"
   id="dbShared"
   inkscape:connector-curvature="0" /><rect
   style="fill:#e6e6e6"
   id="description"
   width="132.22099"
   height="40.68338"
   x="6.4121742"
   y="52.333313" /></svg>