<?xml version="1.0" encoding="UTF-8" standalone="no"?>
<!-- Generator: Adobe Illustrator 23.0.1, SVG Export Plug-In . SVG Version: 6.00 Build 0)  -->

<svg
   xmlns:dc="http://purl.org/dc/elements/1.1/"
   xmlns:cc="http://creativecommons.org/ns#"
   xmlns:rdf="http://www.w3.org/1999/02/22-rdf-syntax-ns#"
   xmlns:svg="http://www.w3.org/2000/svg"
   xmlns="http://www.w3.org/2000/svg"
   xmlns:sodipodi="http://sodipodi.sourceforge.net/DTD/sodipodi-0.dtd"
   xmlns:inkscape="http://www.inkscape.org/namespaces/inkscape"
   version="1.2"
   id="Layer_1"
   x="0px"
   y="0px"
   viewBox="0 0 240.71 96.29"
   xml:space="preserve"
   sodipodi:docname="icn-post.svg"
   inkscape:version="0.92.4 (5da689c313, 2019-01-14)"><metadata
   id="metadata4178"><rdf:RDF><cc:Work
       rdf:about=""><dc:format>image/svg+xml</dc:format><dc:type
         rdf:resource="http://purl.org/dc/dcmitype/StillImage" /></cc:Work></rdf:RDF></metadata><defs
   id="defs4176" /><sodipodi:namedview
   pagecolor="#ffffff"
   bordercolor="#666666"
   borderopacity="1"
   objecttolerance="10"
   gridtolerance="10"
   guidetolerance="10"
   inkscape:pageopacity="0"
   inkscape:pageshadow="2"
   inkscape:window-width="970"
   inkscape:window-height="659"
   id="namedview4174"
   showgrid="false"
   inkscape:zoom="1.1798429"
   inkscape:cx="19.917904"
   inkscape:cy="48.144999"
   inkscape:window-x="0"
   inkscape:window-y="0"
   inkscape:window-maximized="0"
   inkscape:current-layer="Layer_1" />
<g
   id="g4171">
	<g
   id="g4169">
		<path
   fill="#8DC63F"
   d="M226.73,24.67c4.52,0,8.22,3.7,8.22,8.22V63.4c0,4.52-3.7,8.22-8.22,8.22H56.34    c-4.52,0-8.22-3.7-8.22-8.22V32.89c0-4.52,3.7-8.22,8.22-8.22H226.73 M226.73,18.91H56.34c-7.71,0-13.98,6.27-13.98,13.98V63.4    c0,7.71,6.27,13.98,13.98,13.98h170.39c7.71,0,13.98-6.27,13.98-13.98V32.89C240.71,25.18,234.44,18.91,226.73,18.91L226.73,18.91    z"
   id="path4162" />
		<path
   fill="#8DC63F"
   d="M86.29,96.29H10c-5.5,0-10-4.5-10-10V10C0,4.5,4.5,0,10,0h76.29c5.5,0,10,4.5,10,10v76.29    C96.29,91.79,91.79,96.29,86.29,96.29z"
   id="path4164" />
		<g
   id="Group_95"
   transform="translate(0 0)">
			<path
   id="Path_169"
   fill="#FFFFFF"
   d="M48.22,77.82c1.2,0.01,2.19-0.96,2.2-2.16l0.24-28.89l8.89,8.04     c0.91,0.8,2.29,0.72,3.09-0.19c0.79-0.89,0.72-2.25-0.15-3.06l-12.5-11.27c-0.84-0.77-2.13-0.75-2.95,0.05L35.26,51.41     c-0.89,0.81-0.96,2.2-0.15,3.09c0.81,0.9,2.2,0.96,3.09,0.15c0.02-0.02,0.04-0.03,0.05-0.05l8-7.54l-0.24,28.6     C46.06,76.85,47.03,77.8,48.22,77.82z" />
			<path
   id="Path_170"
   fill="#FFFFFF"
   d="M72.94,45.31c0.32-2.83,0.13-5.69-0.55-8.45c-1.27-5.07-4.96-11.79-15.23-14.97     c-5.66-1.76-10.72-1.36-15,1.15c-5.78,3.41-8.52,9.75-9.57,12.98c-3.56-0.38-7.15,0.38-10.24,2.17     c-3.33,2.08-5.5,5.45-6.52,10.03c-1.4,6.39,0.6,10.59,2.51,12.98c3.06,3.62,7.52,5.76,12.25,5.89l6.08,0.05     c1.21,0.01,2.19-0.96,2.2-2.17c0.01-1.21-0.96-2.19-2.17-2.2l0,0l-6.04-0.05c-3.42-0.12-6.64-1.67-8.88-4.26     c-1.91-2.42-2.47-5.55-1.67-9.33c0.72-3.38,2.27-5.81,4.53-7.24c3.95-2.41,9-1.27,9.03-1.27c0.57,0.15,1.18,0.05,1.68-0.28     c0.49-0.31,0.84-0.81,0.96-1.38c0-0.07,1.89-8.5,8.07-12.12c3.18-1.87,7.04-2.12,11.51-0.74c15.79,4.86,12.65,19.43,12.5,20.04     c-0.26,1.07,0.33,2.17,1.36,2.56c0.36,0.11,8.52,3.24,6.43,9.99c-1.42,4.65-7.06,4.42-7.28,4.42l-8.19-0.07     c-1.21-0.01-2.19,0.96-2.2,2.17c-0.01,1.21,0.96,2.19,2.17,2.2l8.48,0.07c3.35,0.03,9.36-1.45,11.23-7.51     C82.71,52.45,77.22,47.49,72.94,45.31z" />
		</g>
	</g>
</g>
<path
   style="fill:none;stroke:#000000;stroke-width:1px;stroke-linecap:butt;stroke-linejoin:miter;stroke-opacity:1"
   d="m 229.11469,49.86444 c 6.11852,0 6.11852,0 6.11852,0"
   id="toMS"
   inkscape:connector-curvature="0" /><rect
   style="fill:#e6e6e6"
   id="description"
   width="132.22099"
   height="40.68338"
   x="98.509003"
   y="26.67" /></svg>