<?xml version="1.0" encoding="UTF-8" standalone="no"?>
<!-- Generator: Adobe Illustrator 23.0.1, SVG Export Plug-In . SVG Version: 6.00 Build 0)  -->

<svg
   xmlns:dc="http://purl.org/dc/elements/1.1/"
   xmlns:cc="http://creativecommons.org/ns#"
   xmlns:rdf="http://www.w3.org/1999/02/22-rdf-syntax-ns#"
   xmlns:svg="http://www.w3.org/2000/svg"
   xmlns="http://www.w3.org/2000/svg"
   xmlns:sodipodi="http://sodipodi.sourceforge.net/DTD/sodipodi-0.dtd"
   xmlns:inkscape="http://www.inkscape.org/namespaces/inkscape"
   version="1.2"
   id="Layer_1"
   x="0px"
   y="0px"
   viewBox="0 0 240.71 96.29"
   xml:space="preserve"
   sodipodi:docname="icn-put.svg"
   inkscape:version="0.92.4 (5da689c313, 2019-01-14)"><metadata
   id="metadata4220"><rdf:RDF><cc:Work
       rdf:about=""><dc:format>image/svg+xml</dc:format><dc:type
         rdf:resource="http://purl.org/dc/dcmitype/StillImage" /></cc:Work></rdf:RDF></metadata><defs
   id="defs4218" /><sodipodi:namedview
   pagecolor="#ffffff"
   bordercolor="#666666"
   borderopacity="1"
   objecttolerance="10"
   gridtolerance="10"
   guidetolerance="10"
   inkscape:pageopacity="0"
   inkscape:pageshadow="2"
   inkscape:window-width="1137"
   inkscape:window-height="736"
   id="namedview4216"
   showgrid="false"
   inkscape:zoom="1.1798429"
   inkscape:cx="19.917904"
   inkscape:cy="48.144999"
   inkscape:window-x="0"
   inkscape:window-y="0"
   inkscape:window-maximized="0"
   inkscape:current-layer="Layer_1" />
<g
   id="g4213">
	<g
   id="g4211">
		<path
   fill="#FFA300"
   d="M226.73,24.67c4.52,0,8.22,3.7,8.22,8.22V63.4c0,4.52-3.7,8.22-8.22,8.22H56.34    c-4.52,0-8.22-3.7-8.22-8.22V32.89c0-4.52,3.7-8.22,8.22-8.22H226.73 M226.73,18.91H56.34c-7.71,0-13.98,6.27-13.98,13.98V63.4    c0,7.71,6.27,13.98,13.98,13.98h170.39c7.71,0,13.98-6.27,13.98-13.98V32.89C240.71,25.18,234.44,18.91,226.73,18.91L226.73,18.91    z"
   id="path4204" />
		<path
   fill="#FFA300"
   d="M86.29,96.29H10c-5.5,0-10-4.5-10-10V10C0,4.5,4.5,0,10,0h76.29c5.5,0,10,4.5,10,10v76.29    C96.29,91.79,91.79,96.29,86.29,96.29z"
   id="path4206" />
		<g
   id="Group_82"
   transform="translate(0 0)">
			<path
   id="Path_151"
   fill="#FFFFFF"
   d="M62.26,14.72L37.11,39.86c-0.46,0.47-0.72,1.1-0.75,1.76l-0.17,12.85     c-0.01,0.69,0.26,1.36,0.75,1.84c0.46,0.49,1.09,0.79,1.76,0.84h0.04l12.43-0.25c0.67-0.04,1.3-0.34,1.76-0.84L78.28,30.7     c0.96-0.99,0.96-2.57,0-3.56L65.86,14.72C64.85,13.75,63.26,13.75,62.26,14.72z M50.04,51.79l-8.79,0.13l0.13-9.2l12.8-12.8     l8.83,8.95L50.04,51.79z M66.57,35.26l-8.83-8.95l6.28-6.28l8.87,8.87L66.57,35.26z" />
			<path
   id="Path_152"
   fill="#FFFFFF"
   d="M44.9,22c1.39,0,2.51-1.12,2.51-2.51s-1.12-2.51-2.51-2.51H19.8     c-1.38,0-2.51,1.13-2.51,2.51v57.32c0,1.38,1.13,2.51,2.51,2.51h46.86c1.38,0,2.51-1.13,2.51-2.51V53.38     c0-1.39-1.12-2.51-2.51-2.51s-2.51,1.12-2.51,2.51l0,0V74.3H22.3V22L44.9,22z" />
		</g>
	</g>
</g>
<path
   style="fill:none;stroke:#000000;stroke-width:1px;stroke-linecap:butt;stroke-linejoin:miter;stroke-opacity:1"
   d="m 228.48811,47.83427 c 6.11852,0 6.11852,0 6.11852,0"
   id="toMS"
   inkscape:connector-curvature="0" /><rect
   style="fill:#e6e6e6"
   id="description"
   width="132.22099"
   height="40.68338"
   x="98.508995"
   y="26.67" /></svg>