<?xml version="1.0" encoding="utf-8"?>
<!-- Generator: Adobe Illustrator 23.0.1, SVG Export Plug-In . SVG Version: 6.00 Build 0)  -->
<svg version="1.2" baseProfile="tiny" id="Layer_1" xmlns="http://www.w3.org/2000/svg" xmlns:xlink="http://www.w3.org/1999/xlink"
	 x="0px" y="0px" viewBox="0 0 145.35 145.35" xml:space="preserve">
<path fill="#C49A6C" d="M96.26,7c2.33,0,4.53,0.91,6.18,2.56l33.36,33.36c1.65,1.65,2.56,3.84,2.56,6.18v47.17
	c0,2.33-0.91,4.53-2.56,6.18l-33.36,33.36c-1.65,1.65-3.84,2.56-6.18,2.56H49.09c-2.33,0-4.53-0.91-6.18-2.56L9.56,102.44
	C7.91,100.79,7,98.6,7,96.26V49.09c0-2.33,0.91-4.53,2.56-6.18L42.91,9.56C44.56,7.91,46.76,7,49.09,7H96.26 M96.26,0H49.09
	c-4.17,0-8.17,1.66-11.12,4.61L4.61,37.96C1.66,40.92,0,44.92,0,49.09v47.17c0,4.17,1.66,8.17,4.61,11.12l33.36,33.36
	c2.95,2.95,6.95,4.61,11.12,4.61h47.17c4.17,0,8.17-1.66,11.12-4.61l33.36-33.36c2.95-2.95,4.61-6.95,4.61-11.12V49.09
	c0-4.17-1.66-8.17-4.61-11.12L107.39,4.61C104.44,1.66,100.44,0,96.26,0L96.26,0z"/>
</svg>
